<svg width="30" height="31" viewBox="0 0 30 31" fill="none" xmlns="http://www.w3.org/2000/svg">
<rect y="0.485107" width="30" height="30" rx="15" fill="#F5F6F7" fill-opacity="0.1"/>
<path d="M21 10.4851H9C8.86739 10.4851 8.74021 10.5378 8.64645 10.6316C8.55268 10.7253 8.5 10.8525 8.5 10.9851V19.4851C8.5 19.7503 8.60536 20.0047 8.79289 20.1922C8.98043 20.3798 9.23478 20.4851 9.5 20.4851H20.5C20.7652 20.4851 21.0196 20.3798 21.2071 20.1922C21.3946 20.0047 21.5 19.7503 21.5 19.4851V10.9851C21.5 10.8525 21.4473 10.7253 21.3536 10.6316C21.2598 10.5378 21.1326 10.4851 21 10.4851ZM20.5 19.4851H9.5V12.122L14.6619 16.8539C14.7541 16.9385 14.8748 16.9855 15 16.9855C15.1252 16.9855 15.2459 16.9385 15.3381 16.8539L20.5 12.122V19.4851Z" fill="#F5F6F7"/>
</svg>
