<svg width="30" height="31" viewBox="0 0 30 31" fill="none" xmlns="http://www.w3.org/2000/svg">
<rect y="0.347656" width="30" height="30" rx="15" fill="#F5F6F7" fill-opacity="0.05"/>
<path d="M20.875 16.3477V20.3477C20.875 20.4471 20.8355 20.5425 20.7652 20.6128C20.6948 20.6831 20.5995 20.7227 20.5 20.7227H9.5C9.40054 20.7227 9.30516 20.6831 9.23483 20.6128C9.16451 20.5425 9.125 20.4471 9.125 20.3477V16.3477C9.125 16.2482 9.16451 16.1528 9.23483 16.0825C9.30516 16.0122 9.40054 15.9727 9.5 15.9727C9.59946 15.9727 9.69484 16.0122 9.76517 16.0825C9.83549 16.1528 9.875 16.2482 9.875 16.3477V19.9727H20.125V16.3477C20.125 16.2482 20.1645 16.1528 20.2348 16.0825C20.3052 16.0122 20.4005 15.9727 20.5 15.9727C20.5995 15.9727 20.6948 16.0122 20.7652 16.0825C20.8355 16.1528 20.875 16.2482 20.875 16.3477ZM14.735 16.6127C14.8053 16.6829 14.9006 16.7223 15 16.7223C15.0994 16.7223 15.1947 16.6829 15.265 16.6127L17.765 14.1127C17.8312 14.0416 17.8673 13.9475 17.8656 13.8504C17.8639 13.7532 17.8245 13.6606 17.7558 13.5918C17.6871 13.5231 17.5944 13.4838 17.4973 13.4821C17.4001 13.4804 17.3061 13.5164 17.235 13.5827L15.375 15.442V9.34766C15.375 9.2482 15.3355 9.15282 15.2652 9.08249C15.1948 9.01217 15.0995 8.97266 15 8.97266C14.9005 8.97266 14.8052 9.01217 14.7348 9.08249C14.6645 9.15282 14.625 9.2482 14.625 9.34766V15.442L12.765 13.5827C12.6939 13.5164 12.5999 13.4804 12.5027 13.4821C12.4056 13.4838 12.3129 13.5231 12.2442 13.5918C12.1755 13.6606 12.1361 13.7532 12.1344 13.8504C12.1327 13.9475 12.1688 14.0416 12.235 14.1127L14.735 16.6127Z" fill="#F5F6F7"/>
</svg>
