<svg width="30" height="31" viewBox="0 0 30 31" fill="none" xmlns="http://www.w3.org/2000/svg">
<rect x="0.00854492" y="0.347656" width="30" height="30" rx="15" fill="#F5F6F7" fill-opacity="0.05"/>
<path d="M17.3185 10.8427C17.2605 10.7845 17.1915 10.7383 17.1156 10.7068C17.0397 10.6753 16.9583 10.6591 16.876 10.6591C16.7938 10.6591 16.7124 10.6753 16.6365 10.7068C16.5606 10.7383 16.4916 10.7845 16.4335 10.8427L12.2785 14.9977C12.2322 15.0439 12.1954 15.0989 12.1703 15.1594C12.1452 15.2198 12.1323 15.2847 12.1323 15.3502C12.1323 15.4157 12.1452 15.4805 12.1703 15.541C12.1954 15.6015 12.2322 15.6564 12.2785 15.7027L16.4335 19.8577C16.6785 20.1027 17.0735 20.1027 17.3185 19.8577C17.5635 19.6127 17.5635 19.2177 17.3185 18.9727L13.6985 15.3477L17.3235 11.7227C17.5635 11.4827 17.5635 11.0827 17.3185 10.8427Z" fill="#F5F6F7" stroke="#F5F6F7" stroke-width="0.1"/>
</svg>
