<svg width="30" height="31" viewBox="0 0 30 31" fill="none" xmlns="http://www.w3.org/2000/svg">
<rect y="0.485107" width="30" height="30" rx="15" fill="#F5F6F7" fill-opacity="0.1"/>
<g clip-path="url(#clip0_49_489)">
<path d="M7.47794 15.3081L7 15.5107C6.99997 15.6319 7.04656 15.7521 7.13747 15.8426L14.6702 23.349C14.7581 23.4366 14.9091 23.4847 14.9978 23.4851C15.0878 23.4855 15.2418 23.4381 15.3313 23.3489L22.8627 15.8378C22.9534 15.7474 22.9999 15.6275 23.0001 15.5066L22.5845 15.3081C22.3528 15.3081 20.2006 15.3081 17.5856 15.3081L14.7816 16.2133L12.41 15.3081C9.95019 15.3081 7.90138 15.3081 7.47794 15.3081Z" fill="#FFB739"/>
<path d="M22.9999 15.5066C22.9999 15.6274 22.9534 15.7473 22.8625 15.8378L15.3312 23.3489C15.2425 23.4375 15.0899 23.4849 15 23.4849V16.1427L17.5856 15.3081H22.5845L22.9999 15.5066Z" fill="#FF9441"/>
<path d="M12.41 15.3081L15 23.4849L17.5856 15.3081H12.41Z" fill="#FF9441"/>
<path d="M17.5856 15.3081L15 23.4849V15.3081H17.5856Z" fill="#FF7149"/>
<path d="M22.9215 15.2464L20.4144 11.49C20.3797 11.4381 20.335 11.394 20.2835 11.3599L20.0563 11.469L15.4337 11.4978L15 11.2817L14.6495 11.5027L10.0373 11.5315L9.7155 11.3604C9.66441 11.3943 9.61987 11.4383 9.58525 11.4903L7.07834 15.2513C7.02556 15.3305 7 15.4209 7 15.5107C7.90816 15.5105 21.8271 15.5068 23 15.5065C23.0001 15.4164 22.9744 15.3257 22.9215 15.2464Z" fill="#FFD17E"/>
<path d="M22.9999 15.5066C22.4187 15.5066 18.707 15.5078 15 15.5088V11.2817L15.4338 11.4977L20.0563 11.469L20.2835 11.3597C20.335 11.3941 20.3797 11.4381 20.4143 11.4899L22.9216 15.2462C22.9746 15.3259 23.0002 15.4164 22.9999 15.5066Z" fill="#FFB739"/>
<path d="M9.97478 11.2817C9.88116 11.2817 9.79135 11.3099 9.7156 11.3603L12.4923 15.5093H12.4927L14.9998 11.2817H9.97478Z" fill="#FFB739"/>
<path d="M17.5083 15.5079L20.2834 11.3598C20.2078 11.3097 20.1183 11.2817 20.025 11.2817H14.9998L17.5063 15.508H17.5083V15.5079Z" fill="#FF9441"/>
<path d="M12.2008 18.7763C11.4172 18.7763 10.7796 18.1388 10.7796 17.3552C10.7796 17.0963 10.5698 16.8865 10.3109 16.8865C10.052 16.8865 9.84213 17.0963 9.84213 17.3552C9.84213 18.1349 9.20847 18.7763 8.42103 18.7763C8.16216 18.7763 7.95228 18.9862 7.95228 19.2451C7.95228 19.5039 8.16216 19.7138 8.42103 19.7138C9.20463 19.7138 9.84213 20.3513 9.84213 21.1349C9.84213 21.3938 10.052 21.6037 10.3109 21.6037C10.5698 21.6037 10.7796 21.3938 10.7796 21.1349C10.7796 20.3553 11.4132 19.7138 12.2008 19.7138C12.4596 19.7138 12.6695 19.5039 12.6695 19.2451C12.6695 18.9862 12.4596 18.7763 12.2008 18.7763Z" fill="#FFD17E"/>
<path d="M19.3853 9.37495C18.6017 9.37495 17.9642 8.73745 17.9642 7.95386C17.9642 7.69498 17.7543 7.48511 17.4954 7.48511C17.2366 7.48511 17.0267 7.69498 17.0267 7.95386C17.0267 8.73745 16.3892 9.37495 15.6056 9.37495C15.3467 9.37495 15.1368 9.58483 15.1368 9.8437C15.1368 10.1026 15.3467 10.3125 15.6056 10.3125C16.3892 10.3125 17.0267 10.95 17.0267 11.7335C17.0267 11.9924 17.2366 12.2023 17.4954 12.2023C17.7543 12.2023 17.9642 11.9924 17.9642 11.7335C17.9642 10.95 18.6017 10.3125 19.3853 10.3125C19.6442 10.3125 19.854 10.1026 19.854 9.8437C19.854 9.58483 19.6442 9.37495 19.3853 9.37495Z" fill="#FFB739"/>
</g>
<defs>
<clipPath id="clip0_49_489">
<rect width="16" height="16" fill="white" transform="translate(7 7.48511)"/>
</clipPath>
</defs>
</svg>
