<svg width="30" height="31" viewBox="0 0 30 31" fill="none" xmlns="http://www.w3.org/2000/svg">
<rect y="0.485107" width="30" height="30" rx="15" fill="#F5F6F7" fill-opacity="0.1"/>
<path d="M20.4544 10.2728C19.5607 10.1777 18.6811 9.97893 17.8333 9.68041C17.0554 9.40555 16.3091 9.04803 15.6074 8.61401C15.4243 8.50286 15.2142 8.44409 15 8.44409C14.7858 8.44409 14.5757 8.50286 14.3926 8.61401L14.3919 8.61467C13.6903 9.04835 12.9443 9.40563 12.1667 9.68041C11.3191 9.97886 10.4397 10.1777 9.54623 10.2729C9.25921 10.3023 8.99332 10.4371 8.80003 10.6513C8.60675 10.8655 8.49984 11.1438 8.5 11.4323V14.8959C8.50047 16.1738 8.84245 17.4284 9.49054 18.5297C10.1386 19.6311 11.0693 20.5393 12.1862 21.1602L14.4329 22.4089C14.606 22.5062 14.8012 22.5573 14.9997 22.5573C15.1982 22.5573 15.3934 22.5062 15.5664 22.4089L17.8138 21.1602C18.9307 20.5393 19.8614 19.6311 20.5095 18.5297C21.1576 17.4284 21.4995 16.1738 21.5 14.8959V11.4323C21.5002 11.1439 21.3934 10.8657 21.2002 10.6515C21.0071 10.4373 20.7413 10.3024 20.4544 10.2728ZM17.653 14.2742L15.153 16.9408C15.0343 17.0677 14.8707 17.1432 14.6971 17.1511C14.5235 17.159 14.3537 17.0987 14.224 16.9832L12.724 15.6498C12.5919 15.5324 12.5118 15.3673 12.5015 15.1909C12.4911 15.0145 12.5512 14.8412 12.6686 14.7091C12.786 14.577 12.9511 14.4969 13.1275 14.4866C13.304 14.4762 13.4773 14.5363 13.6094 14.6537L14.6243 15.5554L16.6803 13.3627C16.7427 13.2963 16.8181 13.2433 16.9017 13.207C16.9853 13.1707 17.0755 13.1519 17.1667 13.1517C17.2966 13.1518 17.4237 13.1899 17.5324 13.2612C17.641 13.3326 17.7264 13.4341 17.7781 13.5534C17.8297 13.6726 17.8454 13.8044 17.8232 13.9325C17.801 14.0605 17.7418 14.1793 17.653 14.2742Z" fill="#F5F6F7"/>
</svg>
