<svg width="30" height="31" viewBox="0 0 30 31" fill="none" xmlns="http://www.w3.org/2000/svg">
<rect y="0.485107" width="30" height="30" rx="15" fill="#F5F6F7" fill-opacity="0.1"/>
<path d="M21.6431 14.6633L18.8306 17.0901L19.6875 20.7195C19.7348 20.9165 19.7226 21.1231 19.6525 21.3132C19.5824 21.5034 19.4576 21.6684 19.2937 21.7876C19.1299 21.9068 18.9344 21.9747 18.7319 21.9828C18.5294 21.991 18.3291 21.9389 18.1562 21.8333L15 19.8908L11.8419 21.8333C11.669 21.9383 11.4689 21.9899 11.2668 21.9814C11.0647 21.973 10.8696 21.905 10.7061 21.7859C10.5426 21.6668 10.418 21.502 10.3479 21.3123C10.2779 21.1225 10.2656 20.9163 10.3125 20.7195L11.1725 17.0901L8.36 14.6633C8.20706 14.5311 8.09645 14.3568 8.04199 14.1621C7.98752 13.9674 7.99162 13.761 8.05376 13.5687C8.1159 13.3763 8.23333 13.2065 8.39139 13.0805C8.54945 12.9545 8.74113 12.8779 8.9425 12.8601L12.63 12.5626L14.0525 9.12013C14.1295 8.93251 14.2605 8.77203 14.429 8.65909C14.5974 8.54615 14.7956 8.48584 14.9984 8.48584C15.2012 8.48584 15.3995 8.54615 15.5679 8.65909C15.7363 8.77203 15.8674 8.93251 15.9444 9.12013L17.3662 12.5626L21.0537 12.8601C21.2555 12.8772 21.4478 12.9534 21.6064 13.0793C21.765 13.2051 21.883 13.3749 21.9455 13.5675C22.0081 13.7601 22.0124 13.9669 21.9579 14.1619C21.9034 14.3569 21.7926 14.5315 21.6394 14.6639L21.6431 14.6633Z" fill="#F5F6F7"/>
</svg>
