<svg width="16" height="16" viewBox="0 0 16 16" fill="none" xmlns="http://www.w3.org/2000/svg">
<path d="M15.723 9.75334L14.2128 8.60334C14.2319 8.426 14.2484 8.21869 14.2484 7.99934C14.2484 7.78 14.2326 7.57269 14.2128 7.39534L15.7244 6.24469C16.0051 6.02869 16.0818 5.64534 15.9031 5.32603L14.3326 2.68C14.1648 2.38134 13.7972 2.228 13.4241 2.362L11.6421 3.05866C11.3004 2.81866 10.9424 2.616 10.572 2.454L10.3009 0.613344C10.2564 0.264 9.94421 0 9.57522 0H6.42602C6.05701 0 5.74553 0.264 5.70169 0.608L5.42991 2.45534C5.07117 2.61269 4.71861 2.81269 4.36192 3.06L2.57508 2.36134C2.24028 2.23534 1.83978 2.37666 1.67342 2.674L0.100886 5.32334C-0.084633 5.62869 -0.00796721 6.02534 0.278896 6.24669L1.78914 7.39669C1.76517 7.62134 1.75355 7.81669 1.75355 8.00003C1.75355 8.18338 1.7652 8.37869 1.78914 8.60403L0.277516 9.75469C-0.00318562 9.97134 -0.0791775 10.3547 0.0995061 10.6733L1.67002 13.3193C1.83776 13.6173 2.20196 13.772 2.57848 13.6373L4.36054 12.9407C4.70148 13.18 5.05952 13.3827 5.42991 13.5453L5.70102 15.3853C5.7455 15.736 6.05701 16 6.4267 16H9.5759C9.94491 16 10.2571 15.736 10.3009 15.392L10.5727 13.5453C10.9314 13.3873 11.2833 13.188 11.6407 12.94L13.4275 13.6387C13.5138 13.6713 13.6035 13.688 13.6959 13.688C13.9615 13.688 14.2059 13.5467 14.3291 13.3267L15.9065 10.6667C16.0818 10.3547 16.0051 9.97134 15.723 9.75334ZM8.00061 10.6667C6.49037 10.6667 5.26217 9.47066 5.26217 8C5.26217 6.52934 6.49037 5.33334 8.00061 5.33334C9.51085 5.33334 10.739 6.52934 10.739 8C10.739 9.47066 9.51085 10.6667 8.00061 10.6667Z" fill="#F5F6F7"/>
</svg>
