<svg width="30" height="31" viewBox="0 0 30 31" fill="none" xmlns="http://www.w3.org/2000/svg">
<rect y="0.485107" width="30" height="30" rx="15" fill="#F5F6F7" fill-opacity="0.1"/>
<path d="M20.25 19.9851C20.25 20.3135 20.1782 20.6379 20.0395 20.9356C19.9008 21.2333 19.6986 21.497 19.4472 21.7082C19.1957 21.9194 18.9011 22.073 18.5839 22.1583C18.2668 22.2435 17.9348 22.2583 17.6113 22.2015C17.2879 22.1448 16.9807 22.0179 16.7115 21.8299C16.4423 21.6418 16.2175 21.3971 16.0529 21.1129C15.8884 20.8287 15.788 20.512 15.7589 20.1848C15.7297 19.8577 15.7726 19.5282 15.8844 19.2194L12.5719 17.0913C12.2555 17.4016 11.8545 17.6116 11.4193 17.6949C10.984 17.7782 10.5339 17.7312 10.1252 17.5596C9.71664 17.3881 9.3678 17.0996 9.12248 16.7306C8.87716 16.3615 8.74629 15.9282 8.74629 15.4851C8.74629 15.0419 8.87716 14.6086 9.12248 14.2395C9.3678 13.8705 9.71664 13.5821 10.1252 13.4105C10.5339 13.2389 10.984 13.1919 11.4193 13.2752C11.8545 13.3585 12.2555 13.5685 12.5719 13.8788L15.8844 11.7538C15.6947 11.2326 15.7037 10.6597 15.9097 10.1448C16.1157 9.62976 16.5042 9.20871 17.001 8.96208C17.4978 8.71544 18.0681 8.6605 18.6028 8.80775C19.1376 8.95501 19.5994 9.29414 19.8999 9.76034C20.2004 10.2265 20.3186 10.7871 20.2319 11.335C20.1452 11.8828 19.8597 12.3795 19.4299 12.7302C19.0002 13.0808 18.4563 13.2608 17.9022 13.2358C17.3481 13.2107 16.8226 12.9824 16.4263 12.5944L13.1137 14.7226C13.2928 15.2173 13.2928 15.7591 13.1137 16.2538L16.4263 18.3819C16.7425 18.0724 17.143 17.863 17.5777 17.78C18.0124 17.6969 18.4619 17.7439 18.87 17.915C19.2781 18.0861 19.6267 18.3737 19.8721 18.7419C20.1176 19.1101 20.249 19.5425 20.25 19.9851Z" fill="#F5F6F7"/>
</svg>
