<svg width="30" height="31" viewBox="0 0 30 31" fill="none" xmlns="http://www.w3.org/2000/svg">
<rect y="0.485107" width="30" height="30" rx="15" fill="#F5F6F7" fill-opacity="0.1"/>
<path d="M19 8.33325H11C10.4696 8.33325 9.96086 8.54397 9.58579 8.91904C9.21071 9.29411 9 9.80282 9 10.3333V19.6666C9 20.197 9.21071 20.7057 9.58579 21.0808C9.96086 21.4559 10.4696 21.6666 11 21.6666H19C19.5304 21.6666 20.0391 21.4559 20.4142 21.0808C20.7893 20.7057 21 20.197 21 19.6666V10.3333C21 9.80282 20.7893 9.29411 20.4142 8.91904C20.0391 8.54397 19.5304 8.33325 19 8.33325ZM12.3333 10.6666H15C15.1768 10.6666 15.3464 10.7368 15.4714 10.8618C15.5964 10.9869 15.6667 11.1564 15.6667 11.3333C15.6667 11.5101 15.5964 11.6796 15.4714 11.8047C15.3464 11.9297 15.1768 11.9999 15 11.9999H12.3333C12.1565 11.9999 11.987 11.9297 11.8619 11.8047C11.7369 11.6796 11.6667 11.5101 11.6667 11.3333C11.6667 11.1564 11.7369 10.9869 11.8619 10.8618C11.987 10.7368 12.1565 10.6666 12.3333 10.6666ZM17.6667 19.3333H12.3333C12.1565 19.3333 11.987 19.263 11.8619 19.138C11.7369 19.013 11.6667 18.8434 11.6667 18.6666C11.6667 18.4898 11.7369 18.3202 11.8619 18.1952C11.987 18.0702 12.1565 17.9999 12.3333 17.9999H17.6667C17.8435 17.9999 18.013 18.0702 18.1381 18.1952C18.2631 18.3202 18.3333 18.4898 18.3333 18.6666C18.3333 18.8434 18.2631 19.013 18.1381 19.138C18.013 19.263 17.8435 19.3333 17.6667 19.3333ZM17.6667 16.8866H12.3333C12.1565 16.8866 11.987 16.8163 11.8619 16.6913C11.7369 16.5663 11.6667 16.3967 11.6667 16.2199C11.6667 16.0431 11.7369 15.8735 11.8619 15.7485C11.987 15.6235 12.1565 15.5533 12.3333 15.5533H17.6667C17.8435 15.5533 18.013 15.6235 18.1381 15.7485C18.2631 15.8735 18.3333 16.0431 18.3333 16.2199C18.3333 16.3967 18.2631 16.5663 18.1381 16.6913C18.013 16.8163 17.8435 16.8866 17.6667 16.8866ZM17.6667 14.4466H12.3333C12.1565 14.4466 11.987 14.3763 11.8619 14.2513C11.7369 14.1263 11.6667 13.9567 11.6667 13.7799C11.6667 13.6031 11.7369 13.4335 11.8619 13.3085C11.987 13.1835 12.1565 13.1133 12.3333 13.1133H17.6667C17.8435 13.1133 18.013 13.1835 18.1381 13.3085C18.2631 13.4335 18.3333 13.6031 18.3333 13.7799C18.3333 13.9567 18.2631 14.1263 18.1381 14.2513C18.013 14.3763 17.8435 14.4466 17.6667 14.4466Z" fill="#F5F6F7"/>
</svg>
